<?xml version="1.0" encoding="UTF-8" standalone="no"?>
<!DOCTYPE svg PUBLIC "-//W3C//DTD SVG 1.1//EN"
 "http://www.w3.org/Graphics/SVG/1.1/DTD/svg11.dtd">
<!-- Generated by graphviz version 2.40.1 (20161225.0304)
 -->
<!-- Title: %3 Pages: 1 -->
<svg width="618pt" height="332pt"
 viewBox="0.00 0.00 617.76 332.00" xmlns="http://www.w3.org/2000/svg" xmlns:xlink="http://www.w3.org/1999/xlink">
<g id="graph0" class="graph" transform="scale(1 1) rotate(0) translate(4 328)">
<title>%3</title>
<polygon fill="#ffffff" stroke="transparent" points="-4,4 -4,-328 613.7602,-328 613.7602,4 -4,4"/>
<!-- [root] aws_elb.example -->
<g id="node1" class="node">
<title>[root] aws_elb.example</title>
<polygon fill="none" stroke="#000000" points="404.8936,-180 292.2995,-180 292.2995,-144 404.8936,-144 404.8936,-180"/>
<text text-anchor="middle" x="348.5965" y="-157.8" font-family="Times,serif" font-size="14.00" fill="#000000">aws_elb.example</text>
</g>
<!-- [root] aws_instance.example -->
<g id="node2" class="node">
<title>[root] aws_instance.example</title>
<polygon fill="none" stroke="#000000" points="328.1597,-108 187.0333,-108 187.0333,-72 328.1597,-72 328.1597,-108"/>
<text text-anchor="middle" x="257.5965" y="-85.8" font-family="Times,serif" font-size="14.00" fill="#000000">aws_instance.example</text>
</g>
<!-- [root] aws_elb.example&#45;&gt;[root] aws_instance.example -->
<g id="edge1" class="edge">
<title>[root] aws_elb.example&#45;&gt;[root] aws_instance.example</title>
<path fill="none" stroke="#000000" d="M325.6334,-143.8314C314.425,-134.9632 300.7756,-124.1637 288.6526,-114.5718"/>
<polygon fill="#000000" stroke="#000000" points="290.5662,-111.6229 280.5523,-108.1628 286.2228,-117.1125 290.5662,-111.6229"/>
</g>
<!-- [root] var.instance_port -->
<g id="node4" class="node">
<title>[root] var.instance_port</title>
<ellipse fill="none" stroke="#000000" cx="439.5965" cy="-90" rx="93.2274" ry="18"/>
<text text-anchor="middle" x="439.5965" y="-85.8" font-family="Times,serif" font-size="14.00" fill="#000000">[root] var.instance_port</text>
</g>
<!-- [root] aws_elb.example&#45;&gt;[root] var.instance_port -->
<g id="edge2" class="edge">
<title>[root] aws_elb.example&#45;&gt;[root] var.instance_port</title>
<path fill="none" stroke="#000000" d="M371.5597,-143.8314C382.9391,-134.8278 396.8347,-123.8335 409.0946,-114.1334"/>
<polygon fill="#000000" stroke="#000000" points="411.5993,-116.6147 417.2699,-107.665 407.2559,-111.1251 411.5993,-116.6147"/>
</g>
<!-- [root] provider.aws -->
<g id="node3" class="node">
<title>[root] provider.aws</title>
<polygon fill="none" stroke="#000000" points="257.5965,-36 178.9882,-18 257.5965,0 336.2048,-18 257.5965,-36"/>
<text text-anchor="middle" x="257.5965" y="-13.8" font-family="Times,serif" font-size="14.00" fill="#000000">provider.aws</text>
</g>
<!-- [root] aws_instance.example&#45;&gt;[root] provider.aws -->
<g id="edge3" class="edge">
<title>[root] aws_instance.example&#45;&gt;[root] provider.aws</title>
<path fill="none" stroke="#000000" d="M257.5965,-71.8314C257.5965,-64.131 257.5965,-54.9743 257.5965,-46.4166"/>
<polygon fill="#000000" stroke="#000000" points="261.0966,-46.4132 257.5965,-36.4133 254.0966,-46.4133 261.0966,-46.4132"/>
</g>
<!-- [root] meta.count&#45;boundary (count boundary fixup) -->
<g id="node5" class="node">
<title>[root] meta.count&#45;boundary (count boundary fixup)</title>
<ellipse fill="none" stroke="#000000" cx="191.5965" cy="-234" rx="191.6931" ry="18"/>
<text text-anchor="middle" x="191.5965" y="-229.8" font-family="Times,serif" font-size="14.00" fill="#000000">[root] meta.count&#45;boundary (count boundary fixup)</text>
</g>
<!-- [root] meta.count&#45;boundary (count boundary fixup)&#45;&gt;[root] aws_elb.example -->
<g id="edge4" class="edge">
<title>[root] meta.count&#45;boundary (count boundary fixup)&#45;&gt;[root] aws_elb.example</title>
<path fill="none" stroke="#000000" d="M230.4055,-216.2022C251.3815,-206.5827 277.4884,-194.6101 299.8266,-184.3658"/>
<polygon fill="#000000" stroke="#000000" points="301.5127,-187.4431 309.1435,-180.0931 298.5947,-181.0803 301.5127,-187.4431"/>
</g>
<!-- [root] provider.aws (close) -->
<g id="node6" class="node">
<title>[root] provider.aws (close)</title>
<ellipse fill="none" stroke="#000000" cx="505.5965" cy="-234" rx="104.3276" ry="18"/>
<text text-anchor="middle" x="505.5965" y="-229.8" font-family="Times,serif" font-size="14.00" fill="#000000">[root] provider.aws (close)</text>
</g>
<!-- [root] provider.aws (close)&#45;&gt;[root] aws_elb.example -->
<g id="edge5" class="edge">
<title>[root] provider.aws (close)&#45;&gt;[root] aws_elb.example</title>
<path fill="none" stroke="#000000" d="M468.787,-217.1192C447.4385,-207.3288 420.2947,-194.8807 397.2064,-184.2924"/>
<polygon fill="#000000" stroke="#000000" points="398.4686,-181.0208 387.9199,-180.0336 395.5506,-187.3836 398.4686,-181.0208"/>
</g>
<!-- [root] root -->
<g id="node7" class="node">
<title>[root] root</title>
<ellipse fill="none" stroke="#000000" cx="348.5965" cy="-306" rx="46.8976" ry="18"/>
<text text-anchor="middle" x="348.5965" y="-301.8" font-family="Times,serif" font-size="14.00" fill="#000000">[root] root</text>
</g>
<!-- [root] root&#45;&gt;[root] meta.count&#45;boundary (count boundary fixup) -->
<g id="edge6" class="edge">
<title>[root] root&#45;&gt;[root] meta.count&#45;boundary (count boundary fixup)</title>
<path fill="none" stroke="#000000" d="M318.3253,-292.1177C295.9458,-281.8544 265.0277,-267.6754 239.3332,-255.892"/>
<polygon fill="#000000" stroke="#000000" points="240.6774,-252.658 230.1287,-251.6708 237.7594,-259.0208 240.6774,-252.658"/>
</g>
<!-- [root] root&#45;&gt;[root] provider.aws (close) -->
<g id="edge7" class="edge">
<title>[root] root&#45;&gt;[root] provider.aws (close)</title>
<path fill="none" stroke="#000000" d="M378.8677,-292.1177C401.7234,-281.6361 433.4849,-267.0703 459.4926,-255.1432"/>
<polygon fill="#000000" stroke="#000000" points="461.1563,-258.2308 468.787,-250.8808 458.2382,-251.868 461.1563,-258.2308"/>
</g>
</g>
</svg>
